<mxfile host="65bd71144e">
    <diagram id="HIP3nbAZw_EuaXWnEj3U" name="Page-1">
        <mxGraphModel dx="1326" dy="706" grid="1" gridSize="10" guides="1" tooltips="1" connect="1" arrows="1" fold="1" page="1" pageScale="1" pageWidth="850" pageHeight="1100" math="0" shadow="0">
            <root>
                <mxCell id="0"/>
                <mxCell id="1" parent="0"/>
                <mxCell id="7" value="http://ics2o.mths.ca" style="swimlane;whiteSpace=wrap;html=1;" parent="1" vertex="1">
                    <mxGeometry x="30" y="40" width="760" height="480" as="geometry"/>
                </mxCell>
                <mxCell id="8" value="" style="shape=image;verticalLabelPosition=bottom;labelBackgroundColor=default;verticalAlign=top;aspect=fixed;imageAspect=0;image=data:image/png,iVBORw0KGgoAAAANSUhEUgAAASwAAACoCAMAAABt9SM9AAABiVBMVEX////6xZ/1giAEARu6XiUvFhcAAADttI7/FhYAABr/AAAAABCEg4tQT1vY2Nvr6u0jHx8AABYAAAfR0NT/rq5zc3P8hiD6w5x2dX0fHTH/y6Smpqb6wpm3t7uurrKRkJftIy3/mZn0egAYAAD/yMf/fn4ACRLttY8TAAAmERcqEBP19fbsr4YkAAD1fhIeAAAZCBcjDxf/kZH2hXufnqRtbW3/MzP+9e5TKhjtfSCfeWP7zq73nIf71rv96dv83ccYHx/FZSPSbSL/6OgQABZlMxmeUhvLnoCMaFbarIwwLz22UgC4VxbclmtpXFx7PxqPShvKah5CIBiDeXlcPza3jXP2jn8EHx49PEllZG33m1j3pWvfdCH4sXzwwKH/SEj/IyNALS7/2dlUREQ6IiNuOBooAAB0VEc4GxdnSj/Qua9YVFZJLirKk3F9NgD5sJIvJyaAISW9IinlIy3QIiqpIyesalmUIiZWCxbqbF7pRkTqkHfXhlD0ijXxm12cUyDAbDjlxbWJTzIFKXFaAAATYUlEQVR4nO2di18aSbbH6QbaRRQEIkiHRxYy8n7dkItABHVUxDFqTMjEV2YyMeNkJ3szu7N7HzNjMrt/+VZVv6q7q5tWmm72wu+TTz5CtdL99ZxTp6pOlQ7HTDPNNNNMM80000wzzTTTTDONX19+859I396z+04mXw/n5/+AND+DNUx/5FHZD6vgD8UTiXg8FPIV7L0TLX0hsrITlj+ePHxTSQOh/9KVN4fJuN+22yGr8Y3EyjZYvuSbdLpUyrsx5UuA2tu6z547Iuq7P2CsbIJ1/022IuOEEatk38YnxSPv4ajsgXXfndYgxfNKu5PW3xVBj+SsbIAVuhJR5XO1qqBaDgOYr3x/3+r7Uqnxi4KV9bCSWQ5KvlbdXjvadT3burjYerbp+ny0tg2ISdb11u7YJaYM89/aA6twmEYsatWT42d0GIqGQl+Ft3Z3clWBVz5rt3HxScP8N/dsSUr9VyXIoZo/vuApyRUON11r2wKu7HMr740glDbMf+OwBZYPpQrVH3ZpEimB19Y7wboqhxbeHEENCOgLySGthIVY5Wp6qDheWztVntZb6+6OpO/mER8bYPm/B6yqOxciKhiwmjC8b21dNJt0WPLM8CYf6u22rXsP4f/Wwypc5d356q4AJExfbB6vuavbKHHY3q661443mwKvcJM3rrTdcQvKeliHJXfOvSV0flvHJyC3ko92QNK1tivwCh9vc1E+btUNastyWPWsu7bWDHNms/vDdo2YxOdrgbVnHK6wC9lWvmT/2NpqWP60u7bDe9hxraoz2MlVAS504TN0WcnmsOWwHtZhiWMVpndr1Q86rBAurhfgaWVD1tyitiyGFcrm1ris4KSavu6n9WkBXC5EaxPGrbzN+YPlsN6W3E349LvVXHaPvdaddICqbb+juevBi7TdMd5aWL5sFToWzAfSe2wvO4xVqfWhegK/I3xUmwDTshbWcwbkV+HmSc0N7Ir9MNSwKoNMPpdDecYJuJixeQLCUliFyjvA6gLkWZVrlh0wpXxen1epBc1vexN+F3DEks2ZqaWw4kyTY5V/wVLsoLV3/eIqn82m05U8GRu4jm2l3VWQQ4Q/V915twU3qSNLYS0fgEHgD4DVFQXEIlGRfg9gew+wVQC1ipxaFlz2Pu9GkQ44YtZeP7QU1hp45DUwMi71KUEs1Y/x1KgMj81dSmfTlRrElu5R1Gs3+AKY5LNtd6VuwV1qy0pYvq/CqFfLDliRVW9p1UdJ6ARj47B9yGevgb+CsAWzs/BOzuYs3kpYf0qh7LKyx0p4lpgfHZ0IpRTLcQPGBl/sVdy1ozB9Uc1fjf8udWQhrMZ5uQl8MP8Bp7K6xCz8ScWKM7oXh20eI0gyQC4ffpdL2zqatg5WOxYrQycsZXAie8FVpk+E1WeYhOM1d1UfpK+1i/BW1d4I/8d5XuOG1Y1R7J+zsoCFOAxaZFbUYHXpR3+bvwrkD7mdcHjN3sH0w//g9d2YPwh4VIYCdnXNypmwrJoTUsa7EWQEK0T5gyu8ydg9PLRG6xDWXuVKgUpBK5IRnZTtvX8vGV0GZl80XZkOWI0YCEN9piczpCcvHz16+eQj/h6WguEY2UHWXTsO/5elsPwLY5Zm4QswrT7VkrN6xOnJcFgUnM/Zbn5lJSx/iBmzNPt2YFo9Sh6gPvKwHkne1hdzro9Pnjz5iBkdcMTacSrUaFMNi1gxjNM7VunCylAKRTg/VCelFPWSw/hSbIOJfLXZiUUilFWwPIFXi2OVphvCoEVK1SmK2B++FFxUGhpdl6rHsJuIWWNaAJZ9E2ixSKxNwqKhjy/llgVQ51/0YEyLWXO/EJZtaV1nvQOty7gikbmIzOoyLAtYRdZNvKlCKF5PJpP1uNqGbIUFRYpOtxKAxZp2N/7kvtQzeVcUvMiwCkleWv2yTntcaDN2e+2I8tk1M3iyeuZFLP8pwwQ8TkGBILMibyfCWhHgLpB/6oLQvqLdxBi7wY7cD9nrn/YGGfYWwCJU29gnDVWSCUqkkDzMIn4BEVac4S/WgBUS2oNKWIVFockTNHiLiqDV866uBpeuW4M+N/MnZqLYlwpaXYOfNEwJxqkSgzsICVbBG9CFVYgGNGD5okHnbWF1FX64hLQK9Ob9Xmsw6PX6SL1eb9AaKGmBRC3WMYxjiBa9KlgeBst8SLBOxScmw1oRfwMKWHFG+jTDsBpyWGxrdUnUqkKKgSS8+v1rswwLweBCFQhdIoKQrF0JKy5ZIxEW1i6HlZQ+4hawVKb105KWVpWzORRlbi1ukvEEmehKsr4QFSNRQmpWw/IHA7qwCs4AGdYpg4dH47AcCmPpeTVhKUdH7CCdf3NLILqKMkK6sBI0Amsx6NSFdYq1Y7D8UXl4vAUsRWLKtgCtja83rk5+2PgaaoNnFVQ6ITCsvDtt5nYen5hZ+RkDbljHn5kAS9ZlSLBCXkVwvAUsOMEso3W9uvGXv/784MGDn//+17/97e9/2fgasWopWcFFHnd6PDk1D0s3wPtkvqSG5Ze1i7CkcBW4AyzHuoLWf3/7QKb/2dhYWlX1hOyAgaUiieE//w5a4GDJMkklrFcyA1HDkveuIiyxgwzuB+4AS0XrVzmsBz//7099Fas+WtYvjWOfmJ9nFfDiTq6AlUTXeLxasHgn9SphCZGOWRQS1tvBUtGK/J+c1kvVtA2bcXOwzF2TTiYXFk7BAJF7TnmIksPinZBZCJJh+RXtEqxCFAJkTh3asBqNDpDWOE4Rtyh27tEvAqlffo2oQjvbv+I3kZlb0BZlmKCXGyB6mX35SFoOax+ZjPdUSKWUsDgn9S4K7VhvCDh74OVxDViddiSGRGkk3J2YIt9i2cjHJ7/++uQjaWjN9t18bY3JC/j7YmIUWFRGQxkszlE9jL9OhsU7KeNLqGEBSigl0YDVlVBoTRI02gQmGkNqdpAV65C+N3UrsAgLmIRyQhyHFRKczEGGJTjpitguS0qT6OeQYeGplOZY7seWwckGlrrGik8rplY7SJblZZiovKAJg8Wn5t59wYSUsDgnDTgdZFicyLDwIY3mLMF95qpnABdLtWQ7qc0tDdn3ejxidhRg9vEfjsFa4Z0spAFrQWq/NSx8ql1zEtiXzmdfDMirFRiqwQd5sXza1DWEaNCLD6S9TmJSyj8lmsAhwZKc9A6w8MfVnjF/m4f761t9TfNi2UxLtUHfXFgFIH+ovi8OpLFHFGFhTkiGxbUHovDrMcG6X4G9WyX9YtBX2xcI9f3Bi7T61Ifx1NEIA2k8LRVhnXJOFkQvBFhBCRafo3MX3xJWR7bgpT2z6efDNuBVG8C1U8n3Mv3B9QcCqbHBKghTzFhmJcASBtkgewcSZu09Aa+Xq+kpiGNCVbs8GyHBkqfnOjObhyXu+XPu3aeZOaAMUuvKnc1WtCrkzXVDUcJ0MFbTpIaF5JReKWCp24fDkmfnOiuicRi6c7XcTrN8iWAhZX47qZE5mQtLlq9JlqUDSyWlZZHbpeclxaw2nmbpTQPna7WTd59dTbpcxGCd0Ts6+xBNy7OC+DqhODWg54ZjgeXoUGIGr7t6/Pxo1wVE0+VzDNYN3TzK57RgmbahNQCy0JVEyOf3hxKvRE/DClssggVy+C5aTtVdaV8/C29CVi64qa6Y4XFlLss0eH+HvB0YdAdmDXc8AW6xAq1GC4/nxVYOJVgBTFJMCgQEWJrtw2MWJ664XXtFNEKnyk3EyrUJtxR+KnLh/Ry+AG/urhFxmTcJ78HWWyRbIEwr+51RTE4hmoN3nRwsWXtU1S5KBxYXuDTutHuTAkw4wwK0gG2Vy82bs7Mbugy3uaJ3j9eqamc0b4qGBEs2hiEv34tJqcYs5K2TUihuMB0hzzkUISqaNyyoraZwygN4m2e4GX6mjvTm7aJTwwrI6xOGwNKodbgTLG6hnjxBc45Y0VsuTJtbFxdNeG7IpvhWMyyeGCJ1hqYdecQwclpeRuE1VsLSTkk/caxo1xBdYCeGCDJvdYerNwqi4k4Y6PeVvwYrYXHdISHNuuRZXQyDtYUc80hGy9R1QzCEXjldfLW4uEI6vtJKWOsa3WE3JRzKMwzWJnfdEZbQW7mnXAuWfn1WXbs+K65dn8V1hxHV+8IJRs1hrGC2irQmxa30eJYNiQL5FQFWKMFLIx74tNvFJvVDNMgRvs0bljy8k8V3kReSI5YsPIzTH92PWlatjNwwIo/wjXWQoBsL7xKs8LHgiHZvvx+f1AOexjoYM5YNhncX6g45jxVMy7K9mV8+xGTFB/LLFuJrhIqizgyGdxffHdJod7TFhnVvHtOXFnygPGjxqCiK80MD4V3oDuFRNJwfZi2LWPj5wJbA4oMW8sNOW5y0iRgN7y6xO6T5E7Ssi1jWw+IyrUijs07hi/U3qVSqbMQLxQjP94djmlEmSQdWwRcKjeHUen5hOoKTilGdRrfb6R4YgiVE+JttU2dnhksDlr++6BQSy+iCxu8urr37Qk/K/RSUWCfSMwaLi/DlG3QgkpV5AzHA+04ZxitVkjDMKdG87i8v32W0L99PEcFKaoyxcm2GEasI26qYOeEwXA+/wMTBKqwot2R4gl5SKnNHWHzU4lG1pfz0H18Zg+VCrMB3Z9K2H8xWYNSzhd4o4cK7wuIXeiLAqLr4uOfPBi3LtRsO36B11xf5cdXeGhZx/wphrHpnWI4uIEW1u4oRolFWrrWdz8guoR/aDYuvsIVLzVKh0iv1ZXeHBeslVW8Z9kLXuxp/+Eo/Pa5CZePyMx5PkPG+Ol30CKtfsCJLqVFgEWTYC11HuQpXDw/6Q/tPdU0yzApn3nWelgWwjKJyuT7X4Il3ENZeye4ID7Qi9n6n3FJjgBDhzYXVMeyFLjAorKAtPOiczgk4XlkQX8FNmDw2GZbBjBSp6k7zey1KsDjJ7hgvii9GJe04NxfW78ZZuQAhbicdTB7gn7OYiL9b5D/l69cWCY2mwmoY90KX68Sdd4vJA5x5qDy387wxfzweT9QXGd4Jo6RfnamwjCcOQGt5d7bPBS1YzZUvpZk3NqYQ3AKN18MNDsnHo5gKSzdxULbt5NwVLmhl4B+pe/Pc3r9PJ+3r9TD7Gr80U2Hphaynxd/kuN5VShV+++9hPWR7byjC8jg1t6eZCUsnZB24WIp9KqP1z7eHh89Z7bIJi4VbFvOKfMSsmbC0QtbB70+LxQgITr/hb/bht7CaZRNWK44Ppr1MVJY5JJdR1izACi2PvjfyHxohqyhsHohgFxz04LegmZ7IZMBCEjfy4nmW7/HyYxgneFh+8HLkjvuMvFYhbbXHTYuD1dWqMbFchZAvFEos7IsD6YDUIRYeLy/DAgge1sLy8vKoSWEsRdMXquWKg6fYHoviARB69+ArCKuxPjGwBCUEWgwWt+LAluICLP7FSOpwpQ5NBa+DOXz+uVh8yquYWW/zS0MTBUvcv4JX7IKgBR0RwQJOOHrIuhFKHYB9YUV+Ls2DtaRdnpMQs0QJ06aBfezNAvC85xwsM5yQStG4mgKw37VYYdRG/GhzJdSsyedoQsCe4onl5QR0wlEH/Q05K7Q0zxEbysp2w0rITm4TtsAq5pWBIy4n0b/RnfCsrILFExtiVTHW9pQ0AbLQJDeG8Mf31cc3IEFH5DWqE4qFbCqV9U5OjFDrdpuVA3WAXphiRaNO/AwpRY8HHRFqHE4owrrE4BQvgYropAPwxfmZ7UaFxIV0jwffckKYVq5zsEb+YxvnGk4IYX3CYN2UZUqZdcrfaCItGxIqdAvmOOG6tmEBSZFcFdjKI36wOSLAUu5kQoKOOLoTatsVBHIWi4DBYeyS0AekLDryVl8J5fJ9gHESmdQfPx551kHHCTlcZVi3RbwoNQlRy7/gRAfXBFDYUp+ZIYlQun1L6TvhEI6Xo366OfIlVl5FnQGvJ7p/Wh/nUsDdUU2KaQkqFMa9wnQ5xAmHmNb5mG9voiRs2LmzaU1AVmqZbkZjBTpLG2/e7xuHNH25OKJhAdOycTZL3AhmqjQ7iJFZ0fSNlXjkqjMe86UJq2MCLBsHPdZalhmwaNpSQLgK/nFI69N0phuMKzVZU6Xjk7AteqRka6Iy03EKnXlBpz6NBGsixtNW6BKMksPtkfxxUkaIVgiVeI9iWdMECykygmmlzPzjRP8WOkO0UjfNIWQIhmVjWmqXIjQIXpHurQeLZXpaOkOZ4FHe68PmTZVKXU4lK6TXGaHooUuiJtndJ85fU1Pog6Jez2XO4DIX3XV84mml2hKrmECwfFmEC2OpqZr8UyozN5eZuzwvzjUcDS6vT31CpVscNjEfu8lkMsXLzPS6IFSRP8O12IB/5h0krKmiQ+wqz+FCfxkFde5Iztd23669KvLnbBbRq0aXnzWGXSWNRjWds3KKPuOPLy1OtWU1BFhzypaOONkOMn7h8NLiRBX9WS0RVkb3stcC0qn2w07REIWO3FunVAZhiQZYnKaVMKW6AoUhY+OZHwKtCxCGRO6uZkcwRWob7OZmfuiQ3GsoAzF5mLq5LEkZo7BEf9XPMf5fS4Q1LDWXkofpTeIFexmeP4mwpjaJ1x7tqCR0BdObPBgc7UDN/NBgAg81Sx5uAWuWxBsd7ciundYkvjtnHNbU+6GQahrKBzLGyP4Lc5oZFoin4zYAAAAASUVORK5CYII=;" vertex="1" parent="7">
                    <mxGeometry x="450" y="83" width="300" height="168" as="geometry"/>
                </mxCell>
                <mxCell id="9" value="&lt;font style=&quot;font-size: 24px;&quot;&gt;Simplified long division, with JS&lt;/font&gt;" style="text;html=1;align=center;verticalAlign=middle;resizable=0;points=[];autosize=1;strokeColor=none;fillColor=none;" vertex="1" parent="7">
                    <mxGeometry x="200" y="30" width="350" height="40" as="geometry"/>
                </mxCell>
                <mxCell id="10" value="Enter the dividend" style="text;html=1;align=center;verticalAlign=middle;resizable=0;points=[];autosize=1;strokeColor=none;fillColor=none;" vertex="1" parent="7">
                    <mxGeometry x="10" y="100" width="120" height="30" as="geometry"/>
                </mxCell>
                <mxCell id="11" value="Enter the Divisor" style="text;html=1;align=center;verticalAlign=middle;resizable=0;points=[];autosize=1;strokeColor=none;fillColor=none;" vertex="1" parent="7">
                    <mxGeometry x="15" y="180" width="110" height="30" as="geometry"/>
                </mxCell>
                <mxCell id="13" value="______________" style="text;html=1;align=center;verticalAlign=middle;resizable=0;points=[];autosize=1;strokeColor=none;fillColor=none;" vertex="1" parent="7">
                    <mxGeometry x="10" y="128" width="120" height="30" as="geometry"/>
                </mxCell>
                <mxCell id="20" value="______________" style="text;html=1;align=center;verticalAlign=middle;resizable=0;points=[];autosize=1;strokeColor=none;fillColor=none;" vertex="1" parent="7">
                    <mxGeometry x="15" y="210" width="120" height="30" as="geometry"/>
                </mxCell>
                <mxCell id="21" value="Calculate!" style="whiteSpace=wrap;html=1;" vertex="1" parent="7">
                    <mxGeometry x="20" y="240" width="160" height="30" as="geometry"/>
                </mxCell>
            </root>
        </mxGraphModel>
    </diagram>
</mxfile>